<svg xmlns="http://www.w3.org/2000/svg" version="1.0" width="1898.000000pt" height="762.000000pt" viewBox="0 0 1898.000000 762.000000" preserveAspectRatio="xMidYMid meet">

<g transform="translate(0.000000,762.000000) scale(0.100000,-0.100000)" fill="#f44336" stroke="none">
<path d="M10495 7037 c-79 -36 -854 -493 -883 -520 -19 -18 -43 -50 -55 -72 l-22 -40 0 -1016 0 -1016 30 -48 c59 -96 183 -127 279 -71 57 34 93 85 106 155 6 34 10 382 10 940 l0 886 188 108 c103 59 193 107 200 107 9 0 12 -268 12 -1253 0 -1406 -5 -1311 74 -1388 25 -25 176 -119 391 -243 l350 -203 5 -1039 c5 -972 6 -1042 23 -1079 65 -145 239 -174 349 -58 61 64 58 -2 58 1201 0 1222 3 1163 -68 1241 -27 30 -135 98 -397 249 l-360 208 -5 1410 -5 1410 -28 42 c-40 61 -94 93 -164 98 -37 3 -69 -1 -88 -9z" fill="#f44336"/>
<path d="M13820 7041 c-15 -5 -215 -117 -445 -250 -459 -265 -492 -289 -520 -384 -12 -42 -15 -124 -15 -468 l0 -417 -362 -208 c-238 -137 -377 -222 -403 -249 -80 -80 -85 -192 -13 -280 55 -66 143 -95 219 -72 58 18 841 474 898 523 24 21 53 58 65 83 20 44 21 63 24 481 l4 435 187 108 c104 59 193 107 200 107 8 0 11 -180 11 -702 l0 -703 -774 -448 c-603 -349 -783 -458 -815 -492 -76 -82 -71 25 -71 -1600 l0 -1451 28 -54 c15 -30 44 -68 65 -84 33 -27 48 -31 110 -34 l72 -4 225 130 c124 71 315 181 425 245 110 63 217 130 239 148 21 18 50 57 65 88 l26 56 5 909 5 909 346 201 c190 111 365 214 387 230 53 37 82 96 82 167 -1 99 -50 168 -146 205 -82 31 -105 21 -569 -248 -273 -158 -435 -258 -462 -285 -76 -75 -73 -32 -73 -1043 l0 -896 -194 -112 c-107 -62 -197 -112 -200 -112 -4 0 -5 534 -4 1186 l3 1186 749 432 c411 238 769 448 794 467 29 21 57 54 74 88 l28 53 0 1002 c0 953 -1 1003 -19 1041 -45 96 -152 146 -251 116z" fill="#f44336"/>
<path d="M15495 7032 c-70 -33 -828 -474 -867 -504 -21 -16 -49 -54 -65 -86 l-28 -57 0 -2425 0 -2425 23 -48 c13 -26 43 -63 65 -83 23 -20 197 -126 387 -236 520 -301 483 -282 566 -282 68 0 74 2 180 61 399 225 2396 1387 2427 1413 20 17 47 50 60 73 l22 42 3 2195 c2 1562 0 2206 -8 2233 -33 115 -175 178 -285 128 -43 -19 -100 -78 -116 -118 -5 -15 -9 -856 -9 -2142 l0 -2117 -1131 -654 c-623 -359 -1137 -653 -1144 -653 -7 0 -148 78 -314 174 l-301 174 0 2267 0 2267 113 66 c61 36 233 137 382 223 253 147 271 160 300 206 61 101 29 234 -72 293 -60 35 -133 41 -188 15z" fill="#f44336"/>
<path d="M11304 6545 c-59 -29 -98 -79 -114 -145 -8 -32 -10 -337 -8 -1030 3 -939 4 -987 22 -1020 74 -139 239 -166 346 -57 64 65 61 10 58 1123 l-3 1010 -28 42 c-62 95 -176 127 -273 77z" fill="#f44336"/>
<path d="M17156 6555 c-44 -15 -90 -56 -114 -100 -16 -28 -17 -167 -22 -1679 l-5 -1648 -367 -212 c-201 -116 -379 -222 -394 -236 -119 -110 -61 -317 100 -361 77 -21 103 -10 537 240 449 257 512 303 537 387 9 32 12 441 12 1753 0 1665 -1 1713 -19 1749 -52 101 -159 145 -265 107z" fill="#f44336"/>
<path d="M1375 6430 c-81 -12 -135 -30 -209 -67 -184 -91 -317 -255 -367 -451 -18 -73 -19 -130 -19 -2011 0 -2161 -5 -1993 72 -2151 34 -69 60 -103 133 -176 99 -99 175 -146 305 -186 l75 -23 2830 -3 c1879 -2 2865 1 2933 8 183 18 304 74 433 200 84 83 137 168 178 288 l26 77 3 1930 c3 2175 8 2012 -75 2185 -38 79 -59 108 -132 180 -69 69 -103 95 -171 128 -173 85 153 77 -3085 78 -1584 1 -2902 -2 -2930 -6z m2457 -1387 c43 -43 78 -82 78 -88 0 -5 -235 -242 -522 -527 l-523 -516 528 -529 527 -528 -83 -83 c-45 -45 -87 -82 -92 -82 -6 0 -283 273 -617 607 l-608 608 607 607 c335 335 612 608 618 608 5 0 45 -35 87 -77z m1585 -525 c332 -332 603 -607 603 -613 0 -13 -1202 -1215 -1215 -1215 -6 0 -47 37 -93 83 l-82 82 525 525 525 525 -527 527 -528 528 80 80 c44 44 86 80 95 80 8 0 286 -271 617 -602z" fill="#f44336"/>
<path d="M15484 6072 c-49 -23 -97 -79 -113 -131 -14 -50 -16 -3899 -1 -3950 32 -113 150 -181 261 -151 58 16 133 89 148 146 8 30 10 582 9 1995 l-3 1954 -25 45 c-38 67 -96 103 -173 107 -45 3 -73 -1 -103 -15z" fill="#f44336"/>
</g>
</svg>